# xmcd database file
#
# Track frame offsets:
# 150
# 16317
# 28221
# 38120
# 57978
# 70975
# 83210
# 97853
# 122311
# 137128
# 151965
# 167170
# 179458
# 190995
# 206917
# 221158
# 236806
# 251251
# 267504
# 286759
# 301362
# 316659
#
# Disc length: 4418 seconds
#
# Revision: 0
# Processed by: cddbd v1.5.2PL0 Copyright (c) Steve Scherf et al.
# Submitted via: CD-Runner 2010.30
#
DISCID=3a114016
DTITLE=John Prine - John Prine Mix 1
DYEAR=1900
DGENRE=Country
TTITLE0=In Spite of Ourselves
TTITLE1=We're Not the Jet Set
TTITLE2=They Oughta Name a Drink
TTITLE3=Dear Abby
TTITLE4=Please Don't Bury Me
TTITLE5=Spanish Pipe Dream
TTITLE6=Illegal Smile
TTITLE7=It's a Big Old Goofy World
TTITLE8=Paradise
TTITLE9=Fish and Whistle
TTITLE10=Come Back to US Barbara Lewis
TTITLE11=Sweet Revenge
TTITLE12=Wedding Day In Funeralville
TTITLE13=I Had a Dream
TTITLE14=Just Wanna Be With You
TTITLE15=Living in the Future
TTITLE16=Linda Goes To Mars
TTITLE17=Saddle in the Rain
TTITLE18=The Sins of Memphisto
TTITLE19=Shop Talk
TTITLE20=That's the Way The World Goes' Round
TTITLE21=You Never Can Tell
EXTD=
EXTT0=
EXTT1=
EXTT2=
EXTT3=
EXTT4=
EXTT5=
EXTT6=
EXTT7=
EXTT8=
EXTT9=
EXTT10=
EXTT11=
EXTT12=
EXTT13=
EXTT14=
EXTT15=
EXTT16=
EXTT17=
EXTT18=
EXTT19=
EXTT20=
EXTT21=
PLAYORDER=
